<?xml version="1.0" encoding="UTF-8" standalone="no"?>
<svg
   xmlns:dc="http://purl.org/dc/elements/1.1/"
   xmlns:cc="http://creativecommons.org/ns#"
   xmlns:rdf="http://www.w3.org/1999/02/22-rdf-syntax-ns#"
   xmlns:svg="http://www.w3.org/2000/svg"
   xmlns="http://www.w3.org/2000/svg"
   xmlns:sodipodi="http://sodipodi.sourceforge.net/DTD/sodipodi-0.dtd"
   xmlns:inkscape="http://www.inkscape.org/namespaces/inkscape"
   style="display:block"
   viewBox="0 0 395 401.01523"
   height="790"
   width="790"
   version="1.1"
   id="svg"
   sodipodi:docname="icon.svg"
   inkscape:version="0.92.2 (5c3e80d, 2017-08-06)">
  <sodipodi:namedview
     pagecolor="#ffffff"
     bordercolor="#666666"
     borderopacity="1"
     objecttolerance="10"
     gridtolerance="10"
     guidetolerance="10"
     inkscape:pageopacity="0"
     inkscape:pageshadow="2"
     inkscape:window-width="1920"
     inkscape:window-height="1017"
     id="namedview8"
     showgrid="false"
     inkscape:zoom="0.60804866"
     inkscape:cx="545.88003"
     inkscape:cy="358.24923"
     inkscape:window-x="1272"
     inkscape:window-y="-8"
     inkscape:window-maximized="1"
     inkscape:current-layer="svg"
     fit-margin-top="0"
     fit-margin-left="0"
     fit-margin-right="0"
     fit-margin-bottom="0" />
  <metadata
     id="metadata10">
    <rdf:RDF>
      <cc:Work
         rdf:about="">
        <dc:format>image/svg+xml</dc:format>
        <dc:type
           rdf:resource="http://purl.org/dc/dcmitype/StillImage" />
        <dc:title></dc:title>
      </cc:Work>
    </rdf:RDF>
  </metadata>
  <defs
     id="defs8" />
  <g
     id="g841"
     transform="translate(3.3380277,3.3386551)">
    <path
       id="path841"
       transform="matrix(0.50761421,0,0,0.50761421,-3.0015336,0)"
       d="M 388.41211,0.59179688 A 390.73827,387.83095 0 0 0 -2.3261719,388.42188 390.73827,387.83095 0 0 0 388.41211,776.25391 390.73827,387.83095 0 0 0 779.15039,388.42188 390.73827,387.83095 0 0 0 388.41211,0.59179688 Z M 393.64648,143.62891 A 221.53464,244.21142 0 0 1 615.17969,387.8418 221.53464,244.21142 0 0 1 393.64648,632.05273 221.53464,244.21142 0 0 1 172.11133,387.8418 221.53464,244.21142 0 0 1 393.64648,143.62891 Z"
       style="display:inline;opacity:1;fill:#452e59;fill-opacity:1;stroke:none;stroke-width:1.03082252;stroke-miterlimit:4;stroke-dasharray:none;stroke-opacity:1"
       inkscape:connector-curvature="0" />
    <g
       inkscape:label="hands"
       id="g914">
      <path
         style="fill:none;stroke:#4db0ab;stroke-width:12.18274117;stroke-linecap:butt;stroke-linejoin:miter;stroke-miterlimit:4;stroke-dasharray:none;stroke-opacity:1"
         d="m 196.93905,197.2274 141.74611,76.37489"
         id="path857"
         inkscape:connector-curvature="0"
         sodipodi:nodetypes="cc" />
      <circle
         style="opacity:1;fill:#4db0ab;fill-opacity:1;stroke:none;stroke-width:12.17461967;stroke-miterlimit:4;stroke-dasharray:none;stroke-opacity:1"
         id="path859"
         cx="197.1008"
         cy="197.01869"
         r="11.679383" />
      <path
         style="display:block;fill:none;stroke:#4db0ab;stroke-width:6.4974618;stroke-linecap:butt;stroke-linejoin:miter;stroke-miterlimit:4;stroke-dasharray:none;stroke-opacity:1"
         d="m 196.93905,197.2274 105.8397,83.25526"
         id="path857-3"
         inkscape:connector-curvature="0"
         sodipodi:nodetypes="cc" />
    </g>
  </g>
  <g
     id="g909"
     transform="matrix(1.7482981,0,0,1.684797,-2.4769569,7.2780436)"
     style="display:none"
     inkscape:label="clock numbers">
    <path
       id="path892"
       d="M 105.5,22.7 V 6.4 H 99.6 V 4.3 c 0.8,0 1.5,-0.1 2.2,-0.2 0.7,-0.1 1.4,-0.3 2,-0.7 0.6,-0.3 1.1,-0.8 1.5,-1.3 0.4,-0.6 0.7,-1.3 0.8,-2.1 h 2.1 v 22.7 z m 8.6,-17.9 c 0.3,-1 0.8,-1.8 1.4,-2.5 0.6,-0.7 1.4,-1.3 2.4,-1.7 0.9,-0.4 2,-0.6 3.2,-0.6 1,0 1.9,0.1 2.8,0.4 0.9,0.3 1.6,0.7 2.3,1.2 0.6,0.5 1.1,1.2 1.5,2 0.4,0.8 0.6,1.7 0.6,2.8 0,1 -0.2,1.9 -0.5,2.7 -0.3,0.8 -0.7,1.5 -1.2,2.1 -0.5,0.6 -1.1,1.2 -1.8,1.6 -0.7,0.5 -1.3,1 -2,1.4 -0.7,0.4 -1.4,0.8 -2.1,1.3 -0.7,0.5 -1.3,0.9 -1.9,1.3 -0.6,0.5 -1.1,1 -1.5,1.5 -0.4,0.5 -0.7,1.2 -0.8,1.9 h 11.6 v 2.4 h -14.8 c 0.1,-1.3 0.3,-2.5 0.7,-3.4 0.4,-0.9 0.8,-1.8 1.4,-2.5 0.6,-0.7 1.2,-1.3 2,-1.9 0.7,-0.5 1.5,-1 2.3,-1.5 1,-0.6 1.8,-1.1 2.5,-1.6 0.7,-0.5 1.3,-1 1.8,-1.5 0.5,-0.5 0.8,-1.1 1.1,-1.7 0.3,-0.6 0.4,-1.3 0.4,-2.1 0,-0.6 -0.1,-1.2 -0.4,-1.7 -0.2,-0.5 -0.5,-0.9 -0.9,-1.3 -0.4,-0.4 -0.9,-0.6 -1.4,-0.8 -0.5,-0.2 -1.1,-0.3 -1.7,-0.3 -0.8,0 -1.5,0.2 -2,0.5 -0.6,0.3 -1,0.8 -1.4,1.3 -0.4,0.5 -0.6,1.1 -0.8,1.8 -0.2,0.7 -0.2,1.3 -0.2,2 H 114 c -0.3,-1 -0.2,-2.1 0.1,-3.1 z m 52.4,33.4 V 21.9 h -5.9 v -2.2 c 0.8,0 1.5,-0.1 2.2,-0.2 0.7,-0.1 1.4,-0.3 2,-0.7 0.6,-0.3 1.1,-0.8 1.5,-1.3 0.4,-0.6 0.7,-1.3 0.8,-2.1 h 2.1 v 22.7 h -2.7 z m 32.4,21 c 0.3,-1 0.8,-1.8 1.4,-2.5 0.6,-0.7 1.4,-1.3 2.4,-1.7 0.9,-0.4 2,-0.6 3.2,-0.6 1,0 1.9,0.1 2.8,0.4 0.9,0.3 1.6,0.7 2.3,1.2 0.6,0.5 1.1,1.2 1.5,2 0.4,0.8 0.6,1.7 0.6,2.8 0,1 -0.2,1.9 -0.5,2.7 -0.3,0.8 -0.7,1.5 -1.2,2.1 -0.5,0.6 -1.1,1.2 -1.8,1.6 -0.7,0.5 -1.3,1 -2,1.4 -0.7,0.4 -1.4,0.8 -2.1,1.3 -0.7,0.5 -1.3,0.9 -1.9,1.3 -0.6,0.5 -1.1,1 -1.5,1.5 -0.4,0.5 -0.7,1.2 -0.8,1.9 h 11.6 V 77 H 198 c 0.1,-1.3 0.3,-2.5 0.7,-3.4 0.4,-0.9 0.8,-1.8 1.4,-2.5 0.6,-0.7 1.2,-1.3 2,-1.9 0.7,-0.5 1.5,-1 2.3,-1.5 1,-0.6 1.8,-1.1 2.5,-1.6 0.7,-0.5 1.3,-1 1.8,-1.5 0.5,-0.5 0.8,-1.1 1.1,-1.7 0.3,-0.6 0.4,-1.3 0.4,-2.1 0,-0.6 -0.1,-1.2 -0.4,-1.7 -0.2,-0.5 -0.5,-0.9 -0.9,-1.3 -0.4,-0.4 -0.9,-0.6 -1.4,-0.8 -0.5,-0.2 -1.1,-0.3 -1.7,-0.3 -0.8,0 -1.5,0.2 -2,0.5 -0.6,0.3 -1,0.8 -1.4,1.3 -0.4,0.5 -0.6,1.1 -0.8,1.8 -0.2,0.7 -0.2,1.3 -0.2,2 h -2.7 c -0.2,-1.1 -0.1,-2.1 0.2,-3.1 z m 18.7,55.9 h 0.9 c 0.6,0 1.1,-0.1 1.6,-0.2 0.5,-0.1 1,-0.4 1.4,-0.7 0.4,-0.3 0.7,-0.7 0.9,-1.2 0.2,-0.5 0.4,-1 0.4,-1.6 0,-1.2 -0.4,-2.1 -1.2,-2.7 -0.8,-0.6 -1.7,-0.9 -2.9,-0.9 -0.7,0 -1.4,0.1 -1.9,0.4 -0.5,0.3 -1,0.6 -1.3,1.1 -0.4,0.4 -0.6,1 -0.8,1.6 -0.2,0.6 -0.3,1.2 -0.3,1.9 h -2.7 c 0,-1.1 0.2,-2.1 0.5,-3 0.3,-0.9 0.8,-1.7 1.3,-2.3 0.6,-0.6 1.3,-1.1 2.2,-1.5 0.9,-0.4 1.9,-0.5 3,-0.5 1,0 1.9,0.1 2.7,0.4 0.8,0.3 1.6,0.6 2.2,1.1 0.6,0.5 1.1,1.1 1.5,1.9 0.4,0.8 0.5,1.7 0.5,2.7 0,1 -0.3,1.9 -0.9,2.7 -0.6,0.8 -1.3,1.4 -2.2,1.8 v 0.1 c 1.4,0.3 2.4,1 3.1,2 0.7,1 1,2.2 1,3.6 0,1.1 -0.2,2.1 -0.6,3 -0.4,0.9 -1,1.6 -1.7,2.2 -0.7,0.6 -1.5,1 -2.5,1.3 -1,0.3 -2,0.4 -3,0.4 -1.2,0 -2.2,-0.2 -3.1,-0.5 -0.9,-0.3 -1.7,-0.8 -2.4,-1.4 -0.7,-0.6 -1.2,-1.4 -1.5,-2.3 -0.4,-0.9 -0.5,-2 -0.5,-3.1 h 2.7 c 0,1.5 0.5,2.7 1.3,3.6 0.8,0.9 2,1.4 3.6,1.4 0.7,0 1.3,-0.1 1.9,-0.3 0.6,-0.2 1.1,-0.5 1.6,-0.9 0.5,-0.4 0.8,-0.8 1.1,-1.4 0.3,-0.6 0.4,-1.2 0.4,-1.8 0,-0.7 -0.1,-1.3 -0.4,-1.9 -0.3,-0.6 -0.6,-1 -1,-1.4 -0.4,-0.4 -0.9,-0.7 -1.5,-0.8 -0.6,-0.1 -1.2,-0.3 -1.9,-0.3 -0.6,0 -1.1,0 -1.6,0.1 V 115 c -0.1,0.1 0,0.1 0.1,0.1 z m -3.4,58.7 v 2.4 h -3.1 v 5.3 h -2.6 v -5.3 h -10 v -2.6 l 10.3,-14.8 h 2.2 v 15 z m -5.6,-11.1 -7.6,11.1 h 7.6 z m -44.9,36.7 -1.2,6.5 0.1,0.1 c 0.5,-0.6 1.1,-1 1.9,-1.2 0.8,-0.3 1.6,-0.4 2.3,-0.4 1,0 2,0.2 2.8,0.5 0.9,0.3 1.7,0.8 2.3,1.5 0.7,0.7 1.2,1.5 1.6,2.4 0.4,0.9 0.6,2.1 0.6,3.4 0,1 -0.2,1.9 -0.5,2.8 -0.3,0.9 -0.8,1.7 -1.5,2.4 -0.7,0.7 -1.5,1.3 -2.5,1.7 -1,0.4 -2.1,0.6 -3.5,0.6 -1,0 -1.9,-0.1 -2.8,-0.4 -0.9,-0.3 -1.6,-0.7 -2.3,-1.2 -0.7,-0.5 -1.2,-1.2 -1.6,-2 -0.4,-0.8 -0.6,-1.7 -0.6,-2.8 h 2.7 c 0,0.6 0.2,1.1 0.4,1.6 0.2,0.5 0.6,0.9 1,1.3 0.4,0.4 0.9,0.7 1.5,0.9 0.6,0.2 1.2,0.3 1.9,0.3 0.6,0 1.3,-0.1 1.8,-0.3 0.6,-0.2 1.1,-0.6 1.5,-1 0.4,-0.4 0.8,-1 1,-1.7 0.3,-0.7 0.4,-1.5 0.4,-2.4 0,-0.7 -0.1,-1.4 -0.4,-2.1 -0.3,-0.7 -0.6,-1.2 -1,-1.6 -0.4,-0.4 -1,-0.8 -1.6,-1.1 -0.6,-0.3 -1.3,-0.4 -2.1,-0.4 -0.9,0 -1.7,0.2 -2.4,0.6 -0.7,0.4 -1.3,0.9 -1.8,1.6 l -2.3,-0.1 2.1,-11.8 h 11.2 v 2.4 h -9 z m -47.3,14.7 c -0.7,-0.6 -1.5,-0.9 -2.6,-0.9 -1.2,0 -2.1,0.3 -2.8,0.8 -0.7,0.5 -1.3,1.3 -1.6,2.1 -0.3,0.8 -0.7,1.8 -0.8,2.8 -0.1,1 -0.2,1.9 -0.3,2.8 l 0.1,0.1 c 0.6,-1 1.4,-1.8 2.4,-2.3 0.9,-0.5 2,-0.7 3.3,-0.7 1.1,0 2.1,0.2 2.9,0.6 0.9,0.4 1.6,0.9 2.2,1.6 0.6,0.7 1,1.4 1.4,2.3 0.3,0.9 0.5,1.9 0.5,2.9 0,0.8 -0.1,1.7 -0.4,2.6 -0.3,0.9 -0.7,1.7 -1.3,2.4 -0.6,0.7 -1.4,1.3 -2.3,1.8 -1,0.5 -2.2,0.7 -3.6,0.7 -1.7,0 -3,-0.3 -4.1,-1 -1.1,-0.7 -1.8,-1.6 -2.4,-2.6 -0.6,-1.1 -0.9,-2.2 -1.1,-3.5 -0.2,-1.3 -0.3,-2.5 -0.3,-3.7 0,-1.6 0.1,-3.1 0.4,-4.5 0.3,-1.5 0.7,-2.8 1.4,-3.9 0.6,-1.1 1.5,-2 2.6,-2.7 1.1,-0.7 2.4,-1 4,-1 1.9,0 3.4,0.5 4.5,1.5 1.1,1 1.7,2.4 1.9,4.3 h -2.7 c -0.2,-1.1 -0.6,-1.9 -1.3,-2.5 z m -4.9,7.5 c -0.6,0.3 -1.1,0.6 -1.5,1.1 -0.4,0.5 -0.7,1 -0.9,1.6 -0.2,0.6 -0.3,1.3 -0.3,2 0,0.7 0.1,1.4 0.3,2 0.2,0.6 0.5,1.2 0.9,1.6 0.4,0.4 0.9,0.8 1.5,1.1 0.6,0.3 1.3,0.4 2,0.4 0.7,0 1.4,-0.1 2,-0.4 0.6,-0.3 1,-0.6 1.4,-1.1 0.4,-0.5 0.7,-1 0.9,-1.6 0.2,-0.6 0.3,-1.2 0.3,-1.9 0,-0.7 -0.1,-1.4 -0.3,-2 -0.2,-0.6 -0.5,-1.2 -0.8,-1.6 -0.4,-0.5 -0.9,-0.8 -1.4,-1.1 -0.5,-0.3 -1.2,-0.4 -2,-0.4 -0.9,-0.1 -1.5,0.1 -2.1,0.3 z M 64.9,203.4 c -1,1.6 -1.9,3.2 -2.7,5 -0.8,1.8 -1.4,3.6 -1.9,5.5 -0.5,1.9 -0.8,3.7 -0.9,5.5 h -3 c 0.1,-1.9 0.4,-3.8 0.9,-5.6 0.5,-1.8 1.1,-3.6 1.9,-5.2 0.8,-1.6 1.7,-3.3 2.7,-4.8 1,-1.5 2.1,-2.9 3.3,-4.1 H 53.5 V 197 h 14.7 v 2.3 c -1.2,1.2 -2.3,2.5 -3.3,4.1 z M 15.2,162.1 c 0.4,-0.7 0.9,-1.3 1.5,-1.8 0.6,-0.5 1.3,-0.9 2.1,-1.1 0.8,-0.3 1.6,-0.4 2.5,-0.4 1.2,0 2.3,0.2 3.2,0.5 0.9,0.3 1.6,0.8 2.1,1.3 0.5,0.5 0.9,1.2 1.2,1.9 0.3,0.7 0.4,1.4 0.4,2.1 0,1 -0.3,2 -0.8,2.8 -0.5,0.8 -1.3,1.5 -2.3,1.9 1.4,0.4 2.4,1.1 3,2.1 0.6,1 1,2.2 1,3.6 0,1.1 -0.2,2.1 -0.6,2.9 -0.4,0.9 -0.9,1.6 -1.6,2.2 -0.7,0.6 -1.5,1 -2.4,1.3 -0.9,0.3 -1.9,0.4 -2.9,0.4 -1.1,0 -2.1,-0.1 -3,-0.4 -0.9,-0.3 -1.8,-0.7 -2.4,-1.3 -0.6,-0.6 -1.2,-1.3 -1.6,-2.2 -0.4,-0.9 -0.6,-1.9 -0.6,-3 0,-1.3 0.3,-2.5 1,-3.5 0.7,-1 1.7,-1.7 2.9,-2.2 -1,-0.4 -1.7,-1 -2.3,-1.9 -0.6,-0.9 -0.9,-1.8 -0.9,-2.8 -0.1,-0.9 0.1,-1.7 0.5,-2.4 z m 2.9,16.2 c 0.9,0.8 2.1,1.2 3.5,1.2 0.7,0 1.3,-0.1 1.9,-0.3 0.6,-0.2 1.1,-0.5 1.5,-0.9 0.4,-0.4 0.7,-0.9 1,-1.4 0.3,-0.5 0.3,-1.1 0.3,-1.8 0,-0.6 -0.1,-1.2 -0.4,-1.7 -0.3,-0.5 -0.6,-1 -1,-1.4 -0.4,-0.4 -0.9,-0.7 -1.5,-0.9 -0.6,-0.2 -1.2,-0.3 -1.8,-0.3 -0.7,0 -1.3,0.1 -1.9,0.3 -0.6,0.2 -1.1,0.5 -1.5,0.9 -0.4,0.4 -0.8,0.8 -1,1.4 -0.2,0.5 -0.4,1.1 -0.4,1.8 -0.1,1.2 0.3,2.3 1.3,3.1 z m -0.3,-12 c 0.2,0.5 0.5,0.8 0.9,1.1 0.4,0.3 0.8,0.5 1.3,0.7 0.5,0.1 1,0.2 1.6,0.2 1.1,0 2,-0.3 2.7,-1 0.7,-0.6 1.1,-1.5 1.1,-2.7 0,-1.2 -0.4,-2 -1.1,-2.6 -0.7,-0.6 -1.6,-0.9 -2.7,-0.9 -0.5,0 -1,0.1 -1.5,0.2 -0.5,0.1 -0.9,0.4 -1.3,0.7 -0.4,0.3 -0.6,0.7 -0.8,1.1 -0.2,0.4 -0.3,0.9 -0.3,1.5 -0.2,0.7 -0.1,1.2 0.1,1.7 z M 4.5,125.1 c 0.8,0.6 1.7,0.9 2.8,0.9 1.7,0 2.9,-0.7 3.7,-2.2 0.8,-1.5 1.3,-3.6 1.4,-6.6 l -0.1,-0.1 c -0.5,1 -1.2,1.7 -2.2,2.3 -0.9,0.6 -2,0.8 -3.1,0.8 -1.2,0 -2.2,-0.2 -3.1,-0.6 C 3,119.2 2.3,118.7 1.6,118 1,117.3 0.5,116.5 0.2,115.6 c -0.3,-0.9 -0.5,-2 -0.5,-3.1 0,-1.1 0.2,-2.1 0.5,-3 0.4,-0.9 0.9,-1.7 1.5,-2.3 0.7,-0.7 1.5,-1.2 2.4,-1.5 0.9,-0.4 1.9,-0.5 3,-0.5 1.1,0 2.1,0.2 3,0.5 0.9,0.3 1.8,0.9 2.5,1.7 0.7,0.8 1.3,1.9 1.7,3.3 0.4,1.4 0.6,3.2 0.6,5.3 0,3.9 -0.6,6.9 -1.9,9 -1.2,2.1 -3.2,3.2 -6,3.2 -1.9,0 -3.5,-0.5 -4.7,-1.4 -1.2,-0.9 -2,-2.4 -2.1,-4.4 h 2.7 c 0.4,1.2 0.9,2.1 1.6,2.7 z m 7.2,-14.2 c -0.2,-0.6 -0.5,-1.2 -0.9,-1.6 -0.4,-0.4 -0.9,-0.9 -1.5,-1.1 -0.6,-0.3 -1.2,-0.4 -2,-0.4 -0.8,0 -1.5,0.1 -2.1,0.4 -0.6,0.3 -1,0.7 -1.4,1.2 -0.4,0.5 -0.6,1.1 -0.8,1.7 -0.2,0.6 -0.2,1.3 -0.2,2 0,0.6 0.1,1.2 0.3,1.8 0.2,0.6 0.5,1.1 0.9,1.5 0.4,0.4 0.9,0.8 1.4,1.1 0.5,0.3 1.1,0.4 1.8,0.4 0.7,0 1.3,-0.1 1.9,-0.4 0.6,-0.3 1.1,-0.6 1.5,-1.1 0.4,-0.5 0.7,-1 0.9,-1.6 0.2,-0.6 0.3,-1.2 0.3,-1.9 0.2,-0.7 0.1,-1.4 -0.1,-2 z M 13.6,76 V 59.8 H 7.8 v -2.2 c 0.8,0 1.5,-0.1 2.2,-0.2 0.7,-0.1 1.4,-0.3 2,-0.7 0.6,-0.3 1.1,-0.8 1.5,-1.3 0.4,-0.6 0.7,-1.3 0.8,-2.1 h 2.1 V 76 Z m 8.3,-13.7 c 0,-0.9 0.1,-1.8 0.3,-2.6 0.2,-0.9 0.4,-1.7 0.7,-2.4 0.3,-0.8 0.8,-1.4 1.3,-2 0.6,-0.6 1.3,-1 2.1,-1.4 0.8,-0.4 1.9,-0.5 3,-0.5 1.2,0 2.2,0.2 3,0.5 0.8,0.3 1.5,0.8 2.1,1.4 0.6,0.6 1,1.2 1.3,2 0.3,0.8 0.6,1.6 0.7,2.4 0.2,0.9 0.3,1.7 0.3,2.6 0,0.9 0.1,1.8 0.1,2.6 0,0.8 0,1.7 -0.1,2.6 -0.1,0.9 -0.1,1.8 -0.3,2.6 -0.2,0.9 -0.4,1.7 -0.7,2.4 -0.3,0.7 -0.8,1.4 -1.3,2 -0.6,0.6 -1.2,1 -2.1,1.4 -0.9,0.4 -1.8,0.5 -3,0.5 -1.2,0 -2.2,-0.2 -3,-0.5 -0.8,-0.3 -1.5,-0.8 -2.1,-1.4 -0.6,-0.6 -1,-1.2 -1.3,-2 -0.3,-0.8 -0.6,-1.6 -0.7,-2.4 -0.2,-0.9 -0.3,-1.7 -0.3,-2.6 0,-0.9 -0.1,-1.8 -0.1,-2.6 0.1,-0.8 0.1,-1.7 0.1,-2.6 z m 2.9,5.4 c 0.1,1.1 0.2,2 0.5,3 0.3,0.9 0.8,1.7 1.4,2.4 0.6,0.7 1.5,1 2.7,1 1.2,0 2,-0.3 2.7,-1 0.7,-0.7 1.1,-1.4 1.4,-2.4 0.3,-0.9 0.5,-1.9 0.5,-3 0.1,-1.1 0.1,-2 0.1,-2.9 V 63 c 0,-0.7 -0.1,-1.3 -0.2,-2 -0.1,-0.7 -0.2,-1.3 -0.4,-2 -0.2,-0.6 -0.4,-1.2 -0.8,-1.7 -0.4,-0.5 -0.8,-0.9 -1.3,-1.2 -0.5,-0.3 -1.2,-0.4 -2,-0.4 -0.8,0 -1.4,0.1 -2,0.4 -0.5,0.3 -1,0.7 -1.3,1.2 -0.4,0.5 -0.6,1 -0.8,1.7 -0.2,0.6 -0.3,1.3 -0.4,2 -0.1,0.7 -0.1,1.3 -0.2,2 v 1.8 c 0.1,0.9 0.1,1.9 0.1,2.9 z"
       inkscape:connector-curvature="0" />
    <g
       id="g896">
      <path
         id="path894"
         d="M 53.5,38.2 V 21.9 h -5.9 v -2.2 c 0.8,0 1.5,-0.1 2.2,-0.2 0.7,-0.1 1.4,-0.3 2,-0.7 0.6,-0.3 1.1,-0.8 1.5,-1.3 0.4,-0.6 0.7,-1.3 0.8,-2.1 h 2.1 v 22.7 h -2.7 z m 15.6,0 V 21.9 h -5.9 v -2.2 c 0.8,0 1.5,-0.1 2.2,-0.2 0.7,-0.1 1.4,-0.3 2,-0.7 0.6,-0.3 1.1,-0.8 1.5,-1.3 0.4,-0.6 0.7,-1.3 0.8,-2.1 h 2.1 v 22.7 h -2.7 z"
         inkscape:connector-curvature="0" />
    </g>
  </g>
</svg>
