<?xml version="1.0" standalone="no"?>
<!DOCTYPE svg PUBLIC "-//W3C//DTD SVG 20010904//EN"
 "http://www.w3.org/TR/2001/REC-SVG-20010904/DTD/svg10.dtd">
<svg version="1.0" xmlns="http://www.w3.org/2000/svg"
 width="700.000000pt" height="700.000000pt" viewBox="0 0 700.000000 700.000000"
 preserveAspectRatio="xMidYMid meet">
<metadata>
Created by potrace 1.11, written by Peter Selinger 2001-2013
</metadata>
<g transform="translate(0.000000,700.000000) scale(0.100000,-0.100000)"
fill="#000000" stroke="none">
<path d="M3388 6935 c-2 -1 -61 -5 -132 -9 -71 -4 -132 -8 -135 -10 -3 -2 -33
-6 -66 -10 -66 -7 -80 -9 -205 -32 -234 -44 -434 -103 -669 -198 -120 -49
-341 -157 -410 -201 -23 -14 -43 -25 -46 -25 -15 0 -294 -194 -400 -278 -153
-122 -426 -395 -536 -537 -317 -407 -513 -800 -643 -1285 -13 -52 -27 -108
-30 -125 -2 -16 -14 -80 -25 -141 -21 -114 -26 -150 -36 -264 -4 -36 -8 -83
-11 -105 -5 -52 -5 -345 0 -410 3 -27 7 -84 10 -125 4 -41 8 -86 11 -100 2
-14 7 -44 9 -65 34 -294 154 -686 307 -1002 168 -349 378 -643 664 -929 343
-344 718 -592 1165 -772 160 -64 413 -142 545 -168 11 -2 43 -8 70 -14 28 -5
66 -12 85 -15 19 -3 46 -7 60 -10 14 -3 45 -7 70 -10 25 -3 61 -7 80 -10 165
-23 640 -23 757 -1 12 3 50 7 84 11 35 4 66 8 69 10 3 1 28 6 55 9 28 4 68 11
90 16 22 5 51 11 65 13 164 31 492 138 675 222 529 242 949 566 1302 1007 81
101 240 334 298 438 57 101 160 317 195 405 17 44 35 89 40 100 10 23 60 180
89 280 23 80 67 278 76 345 3 25 10 70 15 100 5 30 12 87 15 125 4 39 8 90 10
115 13 147 2 504 -19 630 -3 14 -7 48 -10 75 -24 202 -110 534 -198 755 -120
304 -322 656 -504 880 -397 487 -851 829 -1404 1055 -152 63 -391 141 -491
160 -9 2 -33 8 -53 13 -20 6 -36 8 -36 6 0 -3 -8 -1 -17 5 -10 5 -38 12 -63
15 -25 3 -70 10 -100 16 -152 27 -319 41 -527 45 -79 1 -144 1 -145 0z m377
-1279 c199 -24 427 -96 622 -197 394 -204 736 -577 920 -1004 51 -116 56 -129
58 -135 1 -3 16 -51 34 -108 78 -250 110 -472 105 -752 -1 -85 -5 -174 -8
-197 -3 -24 -9 -62 -12 -85 -10 -77 -14 -102 -36 -198 -20 -90 -80 -288 -96
-316 -5 -10 -34 2 -117 47 -61 33 -157 85 -215 116 -119 64 -157 84 -400 216
-96 52 -220 118 -275 147 -55 29 -118 63 -140 75 -55 31 -187 103 -380 206
-42 22 -71 45 -73 56 -17 101 -90 170 -185 177 -65 4 -122 -20 -166 -70 -133
-151 11 -378 207 -325 39 10 49 9 87 -10 23 -12 351 -264 729 -561 l687 -539
-23 -32 c-44 -63 -163 -203 -228 -267 -262 -263 -604 -450 -951 -520 -130 -27
-215 -35 -364 -35 -263 0 -465 41 -705 143 -747 317 -1247 1113 -1252 1992 -1
171 2 216 23 370 53 397 239 814 500 1126 78 94 100 116 209 217 62 57 187
150 263 196 258 157 502 239 812 274 44 5 312 0 370 -7z m805 -2829 c415 -223
685 -368 688 -372 2 -2 -9 -26 -24 -52 -16 -26 -36 -60 -43 -75 -8 -16 -18
-28 -21 -28 -4 0 -45 30 -92 68 -46 37 -98 77 -114 90 -16 12 -67 53 -115 90
-47 37 -122 96 -168 132 -46 36 -133 105 -195 154 -61 48 -117 91 -123 93 -7
3 -13 9 -13 14 0 4 30 -9 68 -30 37 -21 105 -59 152 -84z"/>
</g>
</svg>
